<svg xmlns="http://www.w3.org/2000/svg" viewBox="0 0 270.49 66.5"><defs><style>.cls-1{fill:#000;}</style></defs><title>WhiteAsset 1</title><g id="Layer_2" data-name="Layer 2"><g id="Layer_1-2" data-name="Layer 1"><path class="cls-1" d="M177.35,26.25a15.05,15.05,0,0,0-9.18-9.3,21.12,21.12,0,0,0-7.63-1.29c-1.18,0-2.42.06-3.72.17s-2.56.25-3.81.43-2.44.38-3.59.63-2.14.48-3,.74V63.24h9.8v-13a18.25,18.25,0,0,0,3.42,1.12,17.84,17.84,0,0,0,3.82.4A15.26,15.26,0,0,0,170,50.41a13.17,13.17,0,0,0,4.74-3.69,16.54,16.54,0,0,0,2.89-5.66,25.22,25.22,0,0,0,1-7.3A21.79,21.79,0,0,0,177.35,26.25ZM161.6,43.43a12.16,12.16,0,0,1-3-.39,8.18,8.18,0,0,1-2.4-1V24.35a17.92,17.92,0,0,1,1.84-.23c.75-.07,1.55-.1,2.44-.1a7.09,7.09,0,0,1,6.05,2.73,11.9,11.9,0,0,1,2,7.28Q168.57,43.42,161.6,43.43Z"/><path class="cls-1" d="M142.58,24.81a10.3,10.3,0,0,0-2.47-4.48,11.37,11.37,0,0,0-4.63-2.83,23.05,23.05,0,0,0-7.25-1c-1.13,0-2.26.06-3.38.17s-2.19.24-3.19.39-2,.32-2.79.52-1.58.39-2.15.56l1.25,7.9a22.41,22.41,0,0,1,4.21-1,33.8,33.8,0,0,1,4.94-.36c2.5,0,4.25.51,5.26,1.51a5.39,5.39,0,0,1,1.51,4v.92a14.23,14.23,0,0,0-2.4-.43,30.85,30.85,0,0,0-3.39-.16,25.8,25.8,0,0,0-5.46.56A14.76,14.76,0,0,0,118,32.9a9.35,9.35,0,0,0-3.25,3.36,10,10,0,0,0-1.23,5.13,12.17,12.17,0,0,0,1.06,5.33,8.83,8.83,0,0,0,3,3.52,13.3,13.3,0,0,0,4.7,1.94,29.2,29.2,0,0,0,6.09.59,55.86,55.86,0,0,0,9.08-.63c2.5-.4,4.45-.77,5.85-1.07V30.67A22.18,22.18,0,0,0,142.58,24.81ZM133.89,45a20.19,20.19,0,0,1-2.1.19c-.88,0-1.8.07-2.76.07a8.52,8.52,0,0,1-4.24-.89,3.35,3.35,0,0,1-1.55-3.19,3.44,3.44,0,0,1,.52-2,3.79,3.79,0,0,1,1.45-1.26,6.46,6.46,0,0,1,2.14-.62,19.41,19.41,0,0,1,2.6-.16,19.17,19.17,0,0,1,2.17.13c.79.09,1.37.17,1.77.25Z"/><path class="cls-1" d="M210,24.81a10.49,10.49,0,0,0-2.46-4.48,11.38,11.38,0,0,0-4.65-2.83,22.92,22.92,0,0,0-7.23-1c-1.15,0-2.27.06-3.39.17s-2.18.24-3.19.39-1.94.32-2.8.52-1.56.39-2.14.56l1.25,7.9a22.8,22.8,0,0,1,4.21-1,33.7,33.7,0,0,1,4.94-.36c2.5,0,4.26.51,5.26,1.51a5.44,5.44,0,0,1,1.52,4v.92a14.83,14.83,0,0,0-2.4-.43,31.23,31.23,0,0,0-3.39-.16,25.67,25.67,0,0,0-5.46.56,14.72,14.72,0,0,0-4.68,1.8,9.27,9.27,0,0,0-3.25,3.36,10.12,10.12,0,0,0-1.22,5.13A12,12,0,0,0,182,46.72a8.73,8.73,0,0,0,3,3.52,13.3,13.3,0,0,0,4.7,1.94,29.2,29.2,0,0,0,6.09.59,55.78,55.78,0,0,0,9.08-.63c2.5-.4,4.45-.77,5.86-1.07V30.67A21.76,21.76,0,0,0,210,24.81ZM201.34,45a21,21,0,0,1-2.11.19c-.88,0-1.8.07-2.76.07a8.61,8.61,0,0,1-4.25-.89,3.36,3.36,0,0,1-1.54-3.19,3.52,3.52,0,0,1,.52-2,3.72,3.72,0,0,1,1.45-1.26,6.46,6.46,0,0,1,2.14-.62,19.41,19.41,0,0,1,2.6-.16,19.17,19.17,0,0,1,2.17.13c.79.09,1.38.17,1.78.25Z"/><path class="cls-1" d="M82.18,20.05c-2.86-3-6.73-4.52-11.65-4.52a16.52,16.52,0,0,0-6.14,1.19,15.35,15.35,0,0,0-5.31,3.48A17.39,17.39,0,0,0,55.37,26,21.07,21.07,0,0,0,54,34,22.33,22.33,0,0,0,55,41.13a15,15,0,0,0,3.36,5.69,15.71,15.71,0,0,0,5.72,3.78A21.63,21.63,0,0,0,72.25,52a35,35,0,0,0,3.68-.2q1.84-.18,3.45-.48a25.85,25.85,0,0,0,2.93-.7,12.69,12.69,0,0,0,2.11-.79l-1.32-8a19.67,19.67,0,0,1-4.24,1.22,29.19,29.19,0,0,1-5.3.49,11.31,11.31,0,0,1-6.71-1.77A6.53,6.53,0,0,1,64,37H86.26c0-.53.09-1.14.13-1.82s.07-1.3.07-1.87Q86.46,24.54,82.18,20.05ZM64,30.27a15.28,15.28,0,0,1,.62-2.46,6.53,6.53,0,0,1,1.22-2.14,6,6,0,0,1,2-1.49,6.64,6.64,0,0,1,2.83-.56,6.09,6.09,0,0,1,2.86.6,5.91,5.91,0,0,1,1.92,1.52,5.8,5.8,0,0,1,1.11,2.1A10,10,0,0,1,77,30.27Z"/><path class="cls-1" d="M111.72,50.08a28.27,28.27,0,0,1-4,1.25,23,23,0,0,1-5.33.52,17.41,17.41,0,0,1-6.64-1.08,10.47,10.47,0,0,1-4.21-3,11.12,11.12,0,0,1-2.2-4.7,27.6,27.6,0,0,1-.63-6.12V7.84l9.81-1.59V16.46h11.78v8.15H98.57V36.79a9.71,9.71,0,0,0,1.08,4.93c.72,1.23,2.19,1.84,4.38,1.84a18.54,18.54,0,0,0,3.25-.3,16.56,16.56,0,0,0,3.07-.81Z"/><path class="cls-1" d="M237.32,50.08a28.12,28.12,0,0,1-3.94,1.25,23.08,23.08,0,0,1-5.33.52,17.46,17.46,0,0,1-6.65-1.08,10.61,10.61,0,0,1-4.21-3A11.37,11.37,0,0,1,215,43a27.6,27.6,0,0,1-.63-6.12V7.84l9.81-1.59V16.46H236v8.15H224.17V36.79a9.61,9.61,0,0,0,1.09,4.93c.71,1.23,2.18,1.84,4.37,1.84a18.65,18.65,0,0,0,3.26-.3,16.45,16.45,0,0,0,3.06-.81Z"/><path class="cls-1" d="M270.49,31.53V51.07h-9.81V32.7c0-3.15-.41-5.39-1.21-6.71s-2.31-2-4.51-2a13,13,0,0,0-2.47.23c-.77.15-1.45.32-2.07.5V51.07h-9.81V1.59L250.42,0V16.59A20.63,20.63,0,0,1,253,16a15.81,15.81,0,0,1,3-.3,18.42,18.42,0,0,1,7,1.16,10.76,10.76,0,0,1,4.48,3.26,12.61,12.61,0,0,1,2.37,5A27.74,27.74,0,0,1,270.49,31.53Z"/><path class="cls-1" d="M42.12,15.53A24.67,24.67,0,0,0,7.23,50.42L22.35,65.53a3.28,3.28,0,0,0,4.65,0L42.12,50.42A24.66,24.66,0,0,0,42.12,15.53Zm-17.45,29A11.52,11.52,0,1,1,36.19,33,11.52,11.52,0,0,1,24.67,44.49Z"/></g></g></svg>
